<?xml version="1.0" standalone="no"?><!DOCTYPE svg PUBLIC "-//W3C//DTD SVG 1.1//EN" "http://www.w3.org/Graphics/SVG/1.1/DTD/svg11.dtd"><svg class="icon" width="200px" height="200.00px" viewBox="0 0 1024 1024" version="1.1" xmlns="http://www.w3.org/2000/svg"><path d="M296.306 277.87z m-48.864 37.379c30.064-0.001 54.437-29.944 54.436-66.882v-75.134c0-36.94-24.372-66.882-54.436-66.882-30.064 0.001-54.437 29.944-54.436 66.882v75.134c0 36.94 24.372 66.882 54.436 66.882z m707.669-71.798c-2.445-61.216-59.061-57.176-59.061-57.176h-32.476v106.273s-0.739 46.634-45.983 46.729l-8.523 0.016c-14.665-0.027-40.893-0.055-70.058 0.004-6.763-0.008-11.254-0.017-12.54-0.019-46.057-1.493-43.915-45.519-43.915-45.519V186.274H339.029v107.485s2.142 44.026-43.915 45.519c-1.286 0.003-5.777 0.011-12.54 0.019-29.166-0.06-55.395-0.032-70.058-0.004-2.838-0.004-5.683-0.01-8.523-0.016-45.244-0.095-45.983-46.729-45.983-46.729V186.275h-32.476s-56.616-4.04-59.061 57.176c-0.357 2.48-0.442 3.95-0.442 3.95s0.095 565.726 0.095 590.795c0 60.753 61.56 61.311 61.56 61.311H893.9s61.56-0.559 61.56-61.311c0-25.069 0.095-590.795 0.095-590.795s-0.085-1.469-0.442-3.95zM512 774.969c0 46.433-88.885 56.988-172.324 56.988-83.315 0-173.339-10.555-173.339-56.988V762.2c0-34.078 61.436-68.601 113.811-87.539 3.783-1.387 21.864-11.232 11.754-37.756-25.941-26.489-45.542-69.415-45.542-111.661 0-64.708 42.789-98.617 92.825-98.617 50.004 0 93.04 33.909 93.04 98.617 0 42.075-19.711 84.83-45.496 111.385h0.137c-9.895 30.077 5.94 37.216 8.447 38.032C450.257 692.846 512 727.09 512 762.2v12.769z m305.252-21.313H622.903c-23.052 0-41.738-18.686-41.738-41.737s18.687-41.737 41.738-41.737h194.349c23.052 0 41.738 18.686 41.738 41.737s-18.687 41.737-41.738 41.737z m0-165.256H622.903c-23.052 0-41.738-18.687-41.738-41.737 0-23.051 18.687-41.737 41.738-41.737h194.349c23.052 0 41.738 18.687 41.738 41.737 0 23.051-18.687 41.737-41.738 41.737z m-42.85-273.151c30.064-0.001 54.436-29.944 54.436-66.882v-75.134c0-36.94-26.419-66.882-56.483-66.882-30.064 0.001-52.39 29.944-52.389 66.882v75.134c0 36.94 24.372 66.882 54.436 66.882z" /></svg>