<?xml version="1.0" standalone="no"?><!DOCTYPE svg PUBLIC "-//W3C//DTD SVG 1.1//EN" "http://www.w3.org/Graphics/SVG/1.1/DTD/svg11.dtd"><svg class="icon" width="200px" height="171.96px" viewBox="0 0 1191 1024" version="1.1" xmlns="http://www.w3.org/2000/svg"><path d="M1172.363198 429.584776l-158.090714-119.996566c-0.586064 0-0.586064-0.586064-1.172128-0.586064L625.126111 13.625984 619.118957 8.790957c-13.03992-10.109601-30.328802-11.281728-43.954786-3.516383-0.586064 0.586064-1.172128 0.586064-1.904708 1.172128-1.172128 0.586064-2.344255 1.758191-4.102447 2.344255L175.175617 308.416082l-1.758191 1.758192-156.918587 119.410502c-18.46101 13.625984-21.977393 39.852339-7.765345 58.166834 13.625984 18.46101 40.438403 21.977393 58.752897 7.765345l92.744599-70.181142v448.63185c0 83.807125 66.518243 148.567177 150.325368 148.567177h566.870225c83.807125 0 150.325368-64.760052 150.325368-148.567177V425.482329l93.330663 70.181142c7.765346 6.007154 16.702819 8.351409 25.493776 8.35141 12.453856 0 24.907712-5.42109 33.259121-16.116755 13.919016-18.46101 10.256117-44.687366-7.472313-58.31335zM771.056001 649.798254c22.856489 0 41.464015 18.607526 41.464014 41.464015 0 22.856489-18.607526 41.464015-41.464014 41.464015h-135.234226v72.525397c0 22.856489-18.607526 41.464015-41.464015 41.464015s-41.464015-18.607526-41.464014-41.464015V732.579768h-135.234226c-22.856489 0-41.464015-18.607526-41.464015-41.464015 0-22.856489 18.607526-41.464015 41.464015-41.464015h135.234226v-36.18944h-135.234226c-22.856489 0-41.464015-18.607526-41.464015-41.464015 0-22.856489 18.607526-41.464015 41.464015-41.464015h96.554014l-75.162684-75.162684c-16.116755-16.116755-16.116755-42.343111 0-58.606382 16.116755-16.116755 42.343111-16.116755 58.606381 0l97.286593 97.286594 97.286593-97.286594c16.116755-16.116755 42.343111-16.116755 58.606382 0 16.116755 16.116755 16.116755 42.343111 0 58.606382L675.674115 530.534268h95.23537c22.856489 0 41.464015 18.607526 41.464014 41.464015 0 22.856489-18.607526 41.464015-41.464014 41.464015h-135.234226v36.18944h135.380742z m0 0" /></svg>