<?xml version="1.0" standalone="no"?><!DOCTYPE svg PUBLIC "-//W3C//DTD SVG 1.1//EN" "http://www.w3.org/Graphics/SVG/1.1/DTD/svg11.dtd"><svg class="icon" width="200px" height="200.00px" viewBox="0 0 1024 1024" version="1.1" xmlns="http://www.w3.org/2000/svg"><path d="M122.88 202.23c20.86-1 40.58-1.31 60.19-3 64.09-5.47 125-22.71 183.23-50 44.77-21 88.17-44.32 127.71-74.24 4.32-3.27 7.12-3 11.31 0.09a709.44 709.44 0 0 0 191.39 99.42c53.79 18.34 109.38 26.93 166.25 27h13.42v9.06c0 120.92-0.22 241.84 0.19 362.75 0.18 53.09-14.91 101.86-41.17 147.06q-88.53 152.37-248.9 226.6A231.78 231.78 0 0 1 516 967.1c-30.84 3.62-60-3.33-88.38-14.22-63.91-24.51-118.39-63.6-167.6-110.42-41.88-39.84-77.51-84.57-103.7-136.39-21.82-43.17-33.86-88.53-33.63-137.36 0.56-119.21 0.18-238.43 0.18-357.64zM297.63 548.8l160 135.29L701.8 404.75l-57.53-49.55L449.46 578l-102.64-86.67z"  /></svg>