<?xml version="1.0" standalone="no"?><!DOCTYPE svg PUBLIC "-//W3C//DTD SVG 1.1//EN" "http://www.w3.org/Graphics/SVG/1.1/DTD/svg11.dtd"><svg t="1533188801581" class="icon" style="" viewBox="0 0 1024 1024" version="1.1" xmlns="http://www.w3.org/2000/svg" p-id="9941" xmlns:xlink="http://www.w3.org/1999/xlink" width="1024" height="1024"><defs><style type="text/css"></style></defs><path d="M956.660185 669.696a91.175385 91.175385 0 0 1-45.528616 58.840615 92.672 92.672 0 0 1-61.085538 22.212923c-1.496615 0-2.599385-0.354462-3.347693-1.102769-18.510769 81.447385-59.037538 147.180308-121.580307 197.159385-62.621538 49.939692-137.176615 74.948923-223.783385 74.948923-87.394462 0-162.343385-25.009231-224.886154-74.948923-62.621538-50.018462-103.148308-115.318154-121.619692-196.056616a101.415385 101.415385 0 0 1-50.018462-15.517538c-32.571077-11.106462-52.932923-32.964923-61.046153-65.536-10.397538-36.233846-2.244923-67.741538 24.418461-94.404923a531.731692 531.731692 0 0 1-1.102769-35.524923c-2.244923-135.483077 36.233846-243.593846 115.515077-324.292923 37.021538-37.809231 81.408-66.638769 133.238154-86.646154 3.702154-36.233846 22.961231-66.796308 57.77723-91.608615C408.386954 12.406154 449.465108 0 496.884185 0c47.379692 0 88.457846 12.406154 123.273846 37.218462 34.776615 24.812308 54.035692 55.335385 57.737846 91.608615 52.578462 20.007385 97.358769 48.836923 134.380308 86.646154 78.493538 80.699077 116.617846 189.164308 114.412307 325.395692v28.868923c31.113846 27.411692 41.078154 60.731077 29.971693 99.958154zM328.081723 440.910769c-1.496615 3.702154-3.544615 8.310154-6.144 13.863385a290.028308 290.028308 0 0 1-17.211077 28.908308 332.8 332.8 0 0 1-28.868923 38.281846 250.289231 250.289231 0 0 1-41.629538 36.667077 211.495385 211.495385 0 0 1-54.980923 28.868923 1417.137231 1417.137231 0 0 0-2.205539 52.224v17.723077c0 97.752615 30.129231 177.348923 90.505846 238.828307 60.337231 61.44 137.846154 92.16 232.644923 92.16h1.142154c73.255385 0 136.940308-19.062154 191.015385-57.186461 54.035692-38.124308 91.766154-89.796923 113.270154-154.939077-5.198769 6.695385-10.752 12.603077-16.659693 17.762461a351.940923 351.940923 0 0 1-126.621538 84.401231 390.419692 390.419692 0 0 1-107.716923 27.766154c-1.496615 8.152615-7.207385 15.005538-17.211077 20.558769a68.529231 68.529231 0 0 1-33.870769 8.310154c-14.808615 0-27.411692-3.465846-37.769847-10.515692-10.358154-7.049846-15.556923-15.36-15.556923-25.009231 0-9.609846 5.198769-17.959385 15.556923-24.969846 10.358154-7.049846 22.961231-10.555077 37.769847-10.555077 21.464615 0 37.021538 6.656 46.631384 19.968 57.777231-6.656 109.764923-24.024615 156.041846-52.184615a336.817231 336.817231 0 0 0 112.758154-112.167385c2.914462-20.007385 4.411077-40.369231 4.411077-61.085539v-3.347692c0-0.708923-0.393846-1.457231-1.102769-2.205538a174.710154 174.710154 0 0 0-53.287385-44.425846c-21.504-11.815385-40.172308-20.007385-56.123077-24.418462a1371.057231 1371.057231 0 0 0-69.395692-16.659692c-45.922462-9.649231-80.738462-18.904615-104.369231-27.766154a368.128 368.128 0 0 1-67.741538-35.012923c-22.252308-14.414769-40.172308-28.120615-53.878154-41.078154a521.609846 521.609846 0 0 1-39.424-41.629539c-12.603077-14.808615-20.755692-25.009231-24.418462-30.562461a339.495385 339.495385 0 0 1-8.940307-13.863385l-16.620308 63.291077z m23.315692 169.905231a59.864615 59.864615 0 0 0-43.874461 18.353231c-12.209231 12.209231-18.313846 26.624-18.313846 43.323077 0 16.620308 6.104615 31.074462 18.313846 43.323077 12.209231 12.209231 26.820923 18.274462 43.874461 18.274461 17.014154 0 31.428923-6.104615 43.323077-18.313846 11.815385-12.209231 17.723077-26.663385 17.723077-43.323077 0-16.659692-5.907692-31.113846-17.723077-43.323077a58.092308 58.092308 0 0 0-43.323077-18.313846z m287.113847 1.142154c-16.699077 0-30.956308 5.907692-42.811077 17.723077a58.289231 58.289231 0 0 0-17.723077 42.771692c0 16.659692 5.907692 30.956308 17.723077 42.771692 11.854769 11.854769 26.112 17.762462 42.771692 17.762462 16.659692 0 30.916923-5.907692 42.771692-17.723077 11.815385-11.854769 17.762462-26.151385 17.762462-42.811077 0-16.659692-5.907692-30.877538-17.762462-42.732308-11.854769-11.815385-26.112-17.762462-42.771692-17.762461z" p-id="9942" fill="#6c8bff"></path></svg>