<?xml version="1.0" standalone="no"?><!DOCTYPE svg PUBLIC "-//W3C//DTD SVG 1.1//EN" "http://www.w3.org/Graphics/SVG/1.1/DTD/svg11.dtd"><svg class="icon" width="200px" height="171.24px" viewBox="0 0 1196 1024" version="1.1" xmlns="http://www.w3.org/2000/svg"><path d="M973.312 252.416l-109.568-117.76-339.456 353.792 112.64 114.176 336.384-350.208zM514.048 504.32l-46.592 154.112 154.112-42.496-107.52-111.616z" /><path d="M877.568 125.44s72.192-97.792 137.728-30.208c65.536 67.584-31.232 142.848-31.232 142.848l-106.496-112.64z" /><path d="M921.6 787.456s-112.64-72.192-257.024-83.968"  /><path d="M915.456 704.512H294.912c-20.48 0-37.376-16.896-37.376-37.376S274.432 629.76 294.912 629.76h89.6c21.504 0 38.912-17.408 38.912-38.912 0-21.504-17.408-38.912-38.912-38.912H301.056c-64.512 0-117.76 52.736-117.76 117.76s52.736 117.76 117.76 117.76h115.2v-0.512h384v0.512h121.344c20.48 0 37.376 16.896 37.376 37.376s-16.896 37.376-37.376 37.376H349.696c-21.504 0-38.912 17.408-38.912 38.912 0 21.504 17.408 38.912 38.912 38.912h565.76c64.512 0 117.76-52.736 117.76-117.76s-53.248-117.76-117.76-117.76z"  /><path d="M915.456 704.512H294.912c-20.48 0-37.376-16.896-37.376-37.376S274.432 629.76 294.912 629.76h89.6c21.504 0 38.912-17.408 38.912-38.912 0-21.504-17.408-38.912-38.912-38.912H301.056c-64.512 0-117.76 52.736-117.76 117.76s52.736 117.76 117.76 117.76h115.2v-0.512h384v0.512h121.344c20.48 0 37.376 16.896 37.376 37.376s-16.896 37.376-37.376 37.376H349.696c-21.504 0-38.912 17.408-38.912 38.912 0 21.504 17.408 38.912 38.912 38.912h565.76c64.512 0 117.76-52.736 117.76-117.76s-53.248-117.76-117.76-117.76z"  /></svg>