<?xml version="1.0" standalone="no"?><!DOCTYPE svg PUBLIC "-//W3C//DTD SVG 1.1//EN" "http://www.w3.org/Graphics/SVG/1.1/DTD/svg11.dtd"><svg class="icon" width="200px" height="200.00px" viewBox="0 0 1024 1024" version="1.1" xmlns="http://www.w3.org/2000/svg"><path d="M1024 701.44V197.12C1024 87.04 936.96 0 826.88 0H197.12C87.04 0 0 87.04 0 197.12v629.76C0 936.96 87.04 1024 197.12 1024h629.76c97.28 0 176.64-69.12 194.56-161.28-51.2-23.04-279.04-120.32-396.8-176.64-89.6 107.52-184.32 174.08-325.12 174.08S64 773.12 74.24 665.6c7.68-69.12 56.32-184.32 263.68-163.84 110.08 10.24 161.28 30.72 250.88 61.44 23.04-43.52 43.52-89.6 56.32-138.24h-396.8v-38.4h197.12V314.88H204.8V271.36h240.64v-102.4s2.56-15.36 20.48-15.36h97.28v117.76h256v43.52h-256v71.68h209.92c-20.48 79.36-48.64 151.04-84.48 212.48 58.88 17.92 335.36 102.4 335.36 102.4m-739.84 89.6c-148.48 0-174.08-94.72-166.4-133.12 7.68-38.4 51.2-89.6 135.68-89.6 94.72 0 181.76 25.6 284.16 74.24-74.24 92.16-161.28 148.48-253.44 148.48" /></svg>