<?xml version="1.0" standalone="no"?><!DOCTYPE svg PUBLIC "-//W3C//DTD SVG 1.1//EN" "http://www.w3.org/Graphics/SVG/1.1/DTD/svg11.dtd"><svg t="1533266976393" class="icon" style="" viewBox="0 0 1024 1024" version="1.1" xmlns="http://www.w3.org/2000/svg" p-id="2206" xmlns:xlink="http://www.w3.org/1999/xlink" width="1024" height="1024"><defs><style type="text/css"></style></defs><path d="M505.9328 537.9328c-135.4752 0-245.6576-110.208-245.6576-245.6576s110.208-245.6576 245.6576-245.6576 245.6576 110.208 245.6576 245.6576S641.408 537.9328 505.9328 537.9328z" p-id="2207" fill="#208af6"></path><path d="M746.7008 967.8848 746.7008 967.8848c-0.2048 0-2.5344-0.0256-2.7392-0.0256l-500.736 0c-75.264-4.1984-119.4496-53.376-122.3168-134.9376-0.7168-19.9424 9.0368-51.456 14.2336-62.08 70.3744-143.5648 213.3504-232.7296 373.1456-232.7296 168.1664 0 319.104 95.5904 375.5776 237.8752 21.9904 55.424 21.4784 100.7104-1.5616 134.6048C845.2608 965.12 762.8544 967.8848 746.7008 967.8848z" p-id="2208" fill="#208af6"></path></svg>