<?xml version="1.0" standalone="no"?><!DOCTYPE svg PUBLIC "-//W3C//DTD SVG 1.1//EN" "http://www.w3.org/Graphics/SVG/1.1/DTD/svg11.dtd"><svg class="icon" width="200px" height="200.00px" viewBox="0 0 1024 1024" version="1.1" xmlns="http://www.w3.org/2000/svg"><path d="M501.061368 437.340603l139.597385 0c9.576099 0 17.307178-7.730055 17.307178-17.308201 0-9.576099-7.731078-17.333784-17.307178-17.333784L501.061368 402.698618c-9.577123 0-17.307178 7.757684-17.307178 17.333784C483.755214 429.610548 491.485269 437.340603 501.061368 437.340603zM501.061368 362.256534l139.597385 0c9.576099 0 17.307178-7.757684 17.307178-17.33583 0-9.549493-7.731078-17.307178-17.307178-17.307178L501.061368 327.613526c-9.577123 0-17.307178 7.757684-17.307178 17.307178C483.755214 354.49885 491.485269 362.256534 501.061368 362.256534zM501.061368 506.642992l139.597385 0c9.576099 0 17.307178-7.745405 17.307178-17.294898 0-9.578146-7.731078-17.33583-17.307178-17.33583L501.061368 472.012264c-9.577123 0-17.307178 7.757684-17.307178 17.33583C483.755214 498.897587 491.485269 506.642992 501.061368 506.642992zM838.487378 191.881169c-0.994654-0.199545-2.046612-0.313132-3.1262-0.313132-316.422649-0.028653 38.026058-0.028653-430.925497 0-1.762133-0.084934-3.297093-0.084934-4.63353-0.084934-63.260789 0.369414-95.715969 45.27209-96.910167 46.693462-4.945639 6.848988-3.466961 16.454764 3.41068 21.456684 2.729158 1.988284 5.881964 2.927679 9.036817 2.927679 4.717442 0 9.378601-2.217505 12.419867-6.337335 0 0 0.112564-0.14224 0.76748-0.995677 5.086855-6.167466 30.124088-33.222659 71.275323-33.051767 1.194198 0 2.188852 0 3.012613 0.057305l0.284479 0.027629 0.511653 0c410.03777 0 192.483896 0 340.182796 0-22.765493 21.058618-37.116339 51.04149-37.116339 84.491323l0 17.847483 0.112564 0L706.789916 735.576031c-0.426719 3.096525-3.523243 20.177552-17.732873 35.894512-12.393261 13.555737-33.223682 27.411303-71.958892 31.290657-81.051991-2.983961-81.991386-103.504352-81.991386-103.504352s-0.652869-0.654916-220.393549-0.964978L314.713216 583.007217c0-8.467859-6.876618-15.331173-15.347546-15.331173-8.497535 0-15.3455 6.863315-15.3455 15.331173l0 115.240651c-56.101739-0.059352-124.620275-0.085958-208.543663-0.085958-0.966001 132.392286 91.738377 134.978181 91.738377 134.978181l410.094052 0.058328c7.987928 0.564865 19.382443 1.363044 19.696598 1.363044 62.437028 0 100.291171-22.279423 119.501698-46.567595 19.438725-24.298406 20.947078-50.797943 20.947078-50.797943L737.45431 324.600913l211.072253 0 0-17.847483C948.52861 244.883313 899.703601 194.553021 838.487378 191.881169zM377.892141 414.917918l-79.518055 79.533404 140.448776 59.069327L377.892141 414.917918zM124.189975 320.280514l159.035086 159.03611 79.546707-79.546707L203.70803 240.733806 124.189975 320.280514zM105.206622 301.267485l79.518055-79.489402-9.095145-9.122775c-21.967314-21.968337-57.577347-21.968337-79.544661 0-21.939685 21.968337-21.939685 57.535391 0 79.518055L105.206622 301.267485z" /></svg>