<?xml version="1.0" standalone="no"?><!DOCTYPE svg PUBLIC "-//W3C//DTD SVG 1.1//EN" "http://www.w3.org/Graphics/SVG/1.1/DTD/svg11.dtd"><svg t="1533267656181" class="icon" style="" viewBox="0 0 1024 1024" version="1.1" xmlns="http://www.w3.org/2000/svg" p-id="7021" xmlns:xlink="http://www.w3.org/1999/xlink" width="1024" height="1024"><defs><style type="text/css"></style></defs><path d="M819.2 403.2h-12.8V288c0-160-128-288-288-288H512C352 0 224 128 224 288v115.2h-12.8c-44.8 0-83.2 38.4-83.2 83.2v448c0 51.2 38.4 89.6 83.2 89.6h608c44.8 0 83.2-38.4 83.2-83.2v-448c0-51.2-38.4-89.6-83.2-89.6zM326.4 288c0-96 83.2-179.2 179.2-179.2h19.2C620.8 108.8 704 192 704 288v115.2H326.4V288z" fill="#1bc8ae" p-id="7022"></path></svg>