<?xml version="1.0" standalone="no"?><!DOCTYPE svg PUBLIC "-//W3C//DTD SVG 1.1//EN" "http://www.w3.org/Graphics/SVG/1.1/DTD/svg11.dtd"><svg class="icon" width="200px" height="200.00px" viewBox="0 0 1024 1024" version="1.1" xmlns="http://www.w3.org/2000/svg"><path d="M97.454 730.182V904.728c0 48.161 39.011 87.211 87.158 87.273h654.792c48.128 0 87.142-39.015 87.142-87.142V119.317v-0.044c0-48.161-39.011-87.211-87.157-87.273H184.597c-48.127 0-87.142 39.015-87.142 87.142v131.04h0.007c24.099 0 43.636 19.537 43.636 43.636 0 24.099-19.537 43.636-43.636 43.636h-0.007v109.091h0.007c24.099 0 43.636 19.537 43.636 43.636 0 24.099-19.537 43.636-43.636 43.636h-0.007v109.091h0.007c24.099 0 43.636 19.537 43.636 43.636 0 24.099-19.537 43.636-43.636 43.636h-0.007z m632.444 13.636c-16.494 23.564-66.611 67.658-107.673 60.436C577.759 796.4 478.771 717.2 408.712 574.29c-64.756-133.178-90.436-227.694-80.466-284.138 8.138-46.211 42.546-61.309 60.087-70.56l5.738-2.509c21.251-10.364 49.244-8.967 59.498-7.156 18.829 3.316 25.287 16.8 28.887 26.269 1.898 9.164 22.866 90.458 24.764 99.622 2.749 14.596-2.924 36.546-20.422 45.818l-3.709 1.091c-9.469 3.644-26.946 12.894-30.807 24.567-2.902 6.546-0.698 13.964 3.229 21.731 19.353 40.473 84.174 163.047 97.178 179.454 9.862 14.094 24.982 18.524 37.047 10.058 11.782-6.764 18.131-12.698 18.131-12.698l2.007-1.396c1.702 0.306 9.774-5.346 23.454-2.946 10.254 1.811 18.218 6.742 27.273 15.404 22.669 21.644 72.174 70.953 72.174 70.953l1.702 0.306c4.734 13.178 11.694 33.818-4.516 55.68h-0.066z" /></svg>