<?xml version="1.0" standalone="no"?><!DOCTYPE svg PUBLIC "-//W3C//DTD SVG 1.1//EN" "http://www.w3.org/Graphics/SVG/1.1/DTD/svg11.dtd"><svg class="icon" width="200px" height="200.00px" viewBox="0 0 1024 1024" version="1.1" xmlns="http://www.w3.org/2000/svg"><path d="M477.866667 747.52c0-51.2 13.653333-95.573333 37.546667-136.533333 0-6.826667 0-17.066667 6.826667-27.306667 27.306667-37.546667 44.373333-78.506667 44.373333-92.16 0 0 40.96-34.133333 44.373333-81.92 3.413333-51.2-10.24-51.2-10.24-51.2 17.066667-54.613333 23.893333-259.413333-105.813333-232.106667C474.453333 81.92 337.92 47.786667 273.066667 163.84c-30.72 58.026667-44.373333 133.12-20.48 197.973333 0 3.413333-10.24-3.413333-10.24 23.893333-3.413333 27.306667 10.24 68.266667 23.893333 88.746667C273.066667 477.866667 283.306667 484.693333 290.133333 488.106667c0 0 6.826667 51.2 47.786667 98.986667 10.24 37.546667-27.306667 58.026667-27.306667 58.026667-122.88 23.893333-235.52 92.16-235.52 167.253333 0 6.826667 0 58.026667 0 58.026667 0 81.92 187.733333 98.986667 354.986667 98.986667 51.2 0 102.4-3.413333 150.186667-13.653333C515.413333 904.533333 477.866667 832.853333 477.866667 747.52z"  /><path d="M733.866667 532.48c-119.466667 0-215.04 95.573333-215.04 215.04s95.573333 215.04 215.04 215.04 215.04-95.573333 215.04-215.04S853.333333 532.48 733.866667 532.48zM853.333333 686.08l-116.053333 170.666667c-6.826667 6.826667-13.653333 13.653333-20.48 13.653333-6.826667 0-17.066667-3.413333-20.48-10.24l-68.266667-68.266667c-6.826667-6.826667-6.826667-20.48 0-27.306667l17.066667-17.066667c6.826667-6.826667 20.48-6.826667 27.306667 0l37.546667 37.546667 88.746667-133.12c6.826667-10.24 20.48-10.24 27.306667-6.826667l20.48 13.653333c3.413333 3.413333 6.826667 6.826667 10.24 13.653333C856.746667 675.84 856.746667 682.666667 853.333333 686.08z"  /></svg>