<?xml version="1.0" standalone="no"?><!DOCTYPE svg PUBLIC "-//W3C//DTD SVG 1.1//EN" "http://www.w3.org/Graphics/SVG/1.1/DTD/svg11.dtd"><svg t="1533191447894" class="icon" style="" viewBox="0 0 1610 1024" version="1.1" xmlns="http://www.w3.org/2000/svg" p-id="1080" data-spm-anchor-id="a313x.7781069.0.i4" xmlns:xlink="http://www.w3.org/1999/xlink" width="1610" height="1024"><defs><style type="text/css"></style></defs><path d="M89.770667 29.770667h80.842666V10.666667h-99.946666v99.936h19.104zM89.770667 991.957333h80.842666v19.104h-99.946666v-99.957333h19.104zM1515.562667 29.770667h-80.832V10.666667h99.936v99.936h-19.104zM1515.562667 991.957333h-80.832v19.104h99.936v-99.957333h-19.104z" fill="#1296db" p-id="1081" data-spm-anchor-id="a313x.7781069.0.i2" class="selected"></path><path d="M1448.288 880.064a42.837333 42.837333 0 0 1-42.837333 42.837333H190.581333a42.837333 42.837333 0 0 1-42.826666-42.837333V129.162667a42.826667 42.826667 0 0 1 42.826666-42.826667h1214.890667a42.816 42.816 0 0 1 42.816 42.826667v750.901333z" fill="#ffffff" p-id="1082" data-spm-anchor-id="a313x.7781069.0.i0" class="selected"></path><path d="M266.250667 217.312h93.152v48.181333h-93.152zM266.250667 337.226667h93.152v48.181333h-93.152zM266.250667 457.141333h93.152v48.181334h-93.152z" fill="#5baaff" p-id="1083"></path><path d="M1275.936 379.338667c1.482667 0.842667 2.954667 1.749333 4.426667 2.752l4.426666 2.997333 0.085334 5.312c0.245333 15.392-1.6 28.437333-5.642667 38.453333-3.722667 9.184-9.205333 16.042667-16.586667 20.192-5.024 17.930667-10.890667 34.517333-19.274666 48.458667-9.589333 16.053333-22.272 28.416-40.224 35.050667-8.010667 2.933333-28.490667 4.288-48.202667 4-19.008-0.277333-38.090667-2.154667-45.664-5.653334-16.298667-7.498667-27.754667-20.128-36.426667-35.829333-7.434667-13.429333-12.736-29.056-17.365333-45.557333-7.648-3.978667-13.365333-10.805333-17.216-20.053334-4.224-10.101333-6.133333-23.36-5.888-39.061333l0.064-5.333333 4.437333-2.976a47.146667 47.146667 0 0 1 3.392-2.144c-5.002667-61.685333-3.104-84.501333 19.786667-110.56 44.672-36.586667 147.082667-35.306667 192.341333-2.144 30.869333 29.12 33.013333 61.738667 23.530667 112.096z m-93.824 178.410666l0.661333 14.144-8.352 13.813334 11.648 76.650666 47.850667-102.794666 72.821333-2.496c37.610667 35.584 61.738667 119.413333 55.808 174.08H956.597333c1.002667-48 9.834667-130.016 57.642667-171.712l65.802667 0.608 61.610666 101.685333 11.594667-76.021333-8.384-13.813334 0.650667-14.144c15.968-0.874667 20.650667-0.874667 36.597333 0z m54.517333-200.309333c-28.96 5.664-72.042667 10.613333-106.08-8.533333-13.109333-7.381333-32.288 7.733333-47.978666 6.186666a117.28 117.28 0 0 0-10.602667 31.338667l-1.76 9.258667-9.312-0.906667a13.290667 13.290667 0 0 0-5.408 0.672 20.597333 20.597333 0 0 0-2.517333 1.002667c0.224 10.250667 1.674667 18.762667 4.330666 25.130666 2.336 5.6 5.578667 9.248 9.834667 10.570667l5.44 1.696 1.482667 5.461333c4.586667 16.917333 9.685333 32.864 16.874666 45.845334 6.666667 12.064 15.2 21.642667 26.997334 27.072 4.96 2.272 20.768 3.562667 37.301333 3.808 17.557333 0.266667 35.093333-0.672 40.885333-2.794667 13.024-4.832 22.4-14.122667 29.664-26.282667 7.808-13.098667 13.397333-29.706667 18.282667-47.914666l1.386667-5.205334 5.173333-1.813333c4.096-1.450667 7.274667-5.173333 9.557333-10.837333 2.538667-6.314667 3.946667-14.688 4.192-24.746667a17.984 17.984 0 0 0-2.272-0.906667 14.250667 14.250667 0 0 0-5.28-0.8l-9.077333 0.586667-1.664-8.928a118.485333 118.485333 0 0 0-9.450667-28.96zM393.664 217.312h280.522667v48.181333H393.664zM393.664 337.226667h280.522667v48.181333H393.664zM393.664 457.141333h280.522667v48.181334H393.664zM542.485333 770.858667h421.856v48.202666H542.485333z" fill="#bfbfbf" p-id="1084"></path><path d="M266.250667 770.858667h247.328v48.202666H266.250667z" fill="#5baaff" p-id="1085"></path><path d="M985.226667 721.205333H593.450667a79.946667 79.946667 0 0 1-79.957334-79.957333V424.234667a79.957333 79.957333 0 0 1 48.96-73.717334 7.125333 7.125333 0 0 1-1.674666-4.682666s9.845333-25.12 14.453333-25.12h52.981333c4.106667 0 15.125333 18.112 18.346667 23.562666h32.448s32.181333-62.826667 47.296-62.826666h173.386667c15.829333 0 39.402667 62.826667 39.402666 62.826666h46.144a79.957333 79.957333 0 0 1 79.946667 79.957334v217.013333a79.968 79.968 0 0 1-79.957333 79.957333M600.181333 422.805333a31.466667 31.466667 0 0 0 31.530667-31.413333 31.466667 31.466667 0 0 0-31.530667-31.402667 31.466667 31.466667 0 0 0-31.52 31.402667 31.466667 31.466667 0 0 0 31.52 31.413333m212.810667-54.976c-82.709333 0-149.749333 66.794667-149.749333 149.205334 0 82.4 67.04 149.205333 149.749333 149.205333 82.688 0 149.738667-66.805333 149.738667-149.205333S895.68 367.829333 812.992 367.829333m0 251.285334c-56.597333 0-102.464-45.706667-102.464-102.08s45.866667-102.08 102.464-102.08c56.576 0 102.442667 45.706667 102.442667 102.08s-45.877333 102.08-102.442667 102.08m0 0" fill="#5baaff" p-id="1086"></path></svg>