<?xml version="1.0" standalone="no"?><!DOCTYPE svg PUBLIC "-//W3C//DTD SVG 1.1//EN" "http://www.w3.org/Graphics/SVG/1.1/DTD/svg11.dtd"><svg class="icon" width="200px" height="191.04px" viewBox="0 0 1072 1024" version="1.1" xmlns="http://www.w3.org/2000/svg"><path d="M877.714286 292.571429V243.809524c110.543238 23.893333 0 146.285714 0 146.285714V292.571429z m-219.428572 292.571428C537.112381 585.142857 438.857143 453.973333 438.857143 292.571429s98.255238-292.571429 219.428571-292.571429S877.714286 131.169524 877.714286 292.571429s-98.255238 292.571429-219.428572 292.571428zM438.857143 243.809524v146.285714S314.514286 267.702857 438.857143 243.809524z m-48.761905 369.615238C270.921143 674.864762 212.699429 831.390476 198.656 1024H97.52381a97.52381 97.52381 0 0 1-97.52381-97.52381V438.857143a97.52381 97.52381 0 0 1 97.52381-97.52381h195.047619a97.52381 97.52381 0 0 1 97.523809 97.52381v174.567619zM268.190476 487.619048h-146.285714a24.380952 24.380952 0 0 0 0 48.761904h146.285714a24.380952 24.380952 0 1 0 0-48.761904z m0 97.523809h-146.285714a24.380952 24.380952 0 0 0 0 48.761905h146.285714a24.380952 24.380952 0 1 0 0-48.761905z m219.428572 48.761905l146.285714 243.809524v-146.285715l-48.761905-97.523809 97.52381-48.761905 48.761904 48.761905-48.761904 97.523809v146.285715l146.285714-243.809524s174.908952-18.041905 243.809524 390.095238H243.809524s28.038095-410.575238 243.809524-390.095238z" /></svg>