<?xml version="1.0" standalone="no"?><!DOCTYPE svg PUBLIC "-//W3C//DTD SVG 1.1//EN" "http://www.w3.org/Graphics/SVG/1.1/DTD/svg11.dtd"><svg class="icon" width="200px" height="200.00px" viewBox="0 0 1024 1024" version="1.1" xmlns="http://www.w3.org/2000/svg"><path d="M664.576 578.3552v159.1808a24.4736 24.4736 0 0 1-24.5248 24.5248H419.6352V245.9136c0-15.5136-8.0896-38.912-34.4064-52.1728-14.6432-7.424-210.688-105.2672-210.688-105.2672H640c13.568 0 24.5248 10.9568 24.5248 24.5248v220.5696h61.184V63.7952a36.7104 36.7104 0 0 0-36.8128-36.6592H88.9856a36.7616 36.7616 0 0 0-36.8128 36.6592v722.688c0 14.2336 8.0896 26.4704 19.8656 32.6144 0.1536 0 0.1536 0.1536 0.3072 0.1536 16.128 8.5504 237.9776 130.1504 319.5392 173.1072 17.2544 9.0624 27.7504-0.9728 27.7504-10.8032v-158.208h269.4656a36.864 36.864 0 0 0 36.8128-36.8128v-208.128H664.576v-0.0512z"  /><path d="M970.8544 455.7824l-183.7568-183.7568v122.5216H481.024v122.5216h306.1248v122.368l183.7056-183.6544z"  /></svg>