<?xml version="1.0" standalone="no"?><!DOCTYPE svg PUBLIC "-//W3C//DTD SVG 1.1//EN" "http://www.w3.org/Graphics/SVG/1.1/DTD/svg11.dtd"><svg class="icon" width="200px" height="200.00px" viewBox="0 0 1024 1024" version="1.1" xmlns="http://www.w3.org/2000/svg"><path d="M960 375.653c0-43.008-34.904-77.914-77.914-77.914v-38.956c0-43.048-34.904-77.916-77.912-77.916H771.8l14.338 38.96h18.036c21.504 0 38.956 17.488 38.956 38.956v38.956H141.912c-21.542 0-38.956-17.452-38.956-38.956s17.414-38.956 38.956-38.956h70.161l93.495-38.96H141.912C98.863 180.867 64 215.735 64 258.784v623.305C64 925.096 98.863 960 141.912 960h740.174c43.01 0 77.914-34.904 77.914-77.912V726.263H726.26c-43.046 0-77.914-34.906-77.914-77.916v-38.956c0-43.006 34.868-77.914 77.914-77.914H960V375.653zM687.302 628.87c0 32.256 26.141 58.437 58.437 58.437 32.256 0 58.435-26.181 58.435-58.437 0-32.254-26.179-58.435-58.435-58.435-32.296 0-58.437 26.181-58.437 58.435z m71.683-370.086L687.302 64 219.823 258.784h539.162z" /></svg>