<?xml version="1.0" standalone="no"?><!DOCTYPE svg PUBLIC "-//W3C//DTD SVG 1.1//EN" "http://www.w3.org/Graphics/SVG/1.1/DTD/svg11.dtd"><svg t="1533189366519" class="icon" style="" viewBox="0 0 1024 1024" version="1.1" xmlns="http://www.w3.org/2000/svg" p-id="11466" xmlns:xlink="http://www.w3.org/1999/xlink" width="1024" height="1024"><defs><style type="text/css"></style></defs><path d="M844.8 430.933333l-72.533333 0 0-170.666667C772.266667 115.2 652.8 0 512 0 371.2 0 251.733333 115.2 251.733333 260.266667l0 170.666667L179.2 430.933333c-34.133333 0-64 29.866667-64 64l0 465.066667c0 34.133333 29.866667 64 64 64l665.6 0c34.133333 0 64-29.866667 64-64L908.8 494.933333C908.8 456.533333 878.933333 430.933333 844.8 430.933333L844.8 430.933333zM546.133333 738.133333l0 102.4c0 4.266667-4.266667 8.533333-8.533333 8.533333l-55.466667 0c-4.266667 0-8.533333-4.266667-8.533333-8.533333l0-102.4c-25.6-12.8-42.666667-38.4-42.666667-72.533333 0-42.666667 34.133333-81.066667 81.066667-81.066667 42.666667 0 81.066667 34.133333 81.066667 81.066667C593.066667 699.733333 571.733333 725.333333 546.133333 738.133333L546.133333 738.133333zM669.866667 430.933333 354.133333 430.933333 354.133333 264.533333c0-89.6 72.533333-157.866667 157.866667-157.866667 89.6 0 157.866667 72.533333 157.866667 157.866667L669.866667 430.933333 669.866667 430.933333zM669.866667 430.933333" p-id="11467"></path></svg>